<svg width="3565" height="802" viewBox="0 0 3565 802" fill="none" xmlns="http://www.w3.org/2000/svg">
<path d="M2635.28 785.498V436.54H2471.87V785.498H2635.28Z" fill="#F7E412"/>
<path d="M416.19 802C334.046 802 261.437 785.865 198.363 753.594C135.288 720.59 86.5153 674.018 52.0443 613.877C17.5734 553.736 0.337891 482.96 0.337891 401.55C0.337891 320.14 17.5734 249.364 52.0443 189.224C86.5153 128.349 135.288 81.7769 198.363 49.5062C261.437 16.5021 334.046 0 416.19 0C522.536 0 611.281 24.203 682.423 72.6091V231.029C650.152 203.892 613.114 184.456 571.309 172.722C530.237 160.253 483.298 154.019 430.492 154.019C350.548 154.019 287.107 176.389 240.168 221.128C193.962 265.133 170.859 325.274 170.859 401.55C170.859 478.56 194.329 539.434 241.268 584.173C288.207 628.178 351.282 650.181 430.492 650.181C484.765 650.181 532.804 643.947 574.609 631.479C616.415 618.277 655.286 597.375 691.224 568.771V727.191C623.749 777.064 532.071 802 416.19 802Z" fill="#2C459B"/>
<path fill-rule="evenodd" clip-rule="evenodd" d="M1066.77 802C965.553 802 885.977 777.797 828.036 729.391C770.096 680.252 741.126 611.676 741.126 523.665C741.126 436.388 766.795 367.446 818.135 316.84C870.208 266.233 944.284 240.93 1040.36 240.93C1103.44 240.93 1156.98 252.665 1200.98 276.134C1244.99 299.604 1278.36 332.241 1301.1 374.047C1323.83 415.118 1335.2 461.691 1335.2 513.764V580.872H899.545C911.28 648.348 974.355 682.085 1088.77 682.085C1122.51 682.085 1157.34 679.151 1193.28 673.284C1229.22 667.417 1260.39 659.349 1286.79 649.081V765.696C1261.12 776.697 1228.12 785.498 1187.78 792.099C1147.44 798.7 1107.1 802 1066.77 802ZM1177.88 473.059C1175.68 437.855 1162.48 410.718 1138.27 391.649C1114.07 371.846 1080.7 361.945 1038.16 361.945C996.357 361.945 963.353 371.846 939.15 391.649C914.947 411.451 901.745 438.588 899.545 473.059H1177.88Z" fill="#2C459B"/>
<path d="M1565.7 257.432H1405.08V785.498H1571.2V451.056C1588.06 424.653 1608.6 404.851 1632.8 391.649C1657.01 377.714 1683.04 370.746 1710.91 370.746C1773.99 370.746 1805.53 404.851 1805.53 473.059V785.498H1971.65V454.357C1971.65 389.082 1953.68 337.375 1917.74 299.237C1882.53 260.366 1828.99 240.93 1757.12 240.93C1720.45 240.93 1685.24 247.898 1651.51 261.833C1618.5 275.034 1589.9 295.204 1565.7 322.34V257.432Z" fill="#2C459B"/>
<path d="M2281.04 802C2219.43 802 2172.5 785.131 2140.22 751.394C2108.69 716.923 2092.92 669.25 2092.92 608.376V377.347H2015.91V257.432H2092.92V42.6272H2259.04V257.432H3119.12V377.347H2259.04V586.373C2259.04 617.177 2264.91 639.546 2276.64 653.482C2288.38 666.683 2309.28 673.284 2339.35 673.284C2363.55 673.284 2386.66 667.417 2408.66 655.682V779.997C2374.92 794.666 2332.38 802 2281.04 802Z" fill="#2C459B"/>
<path d="M2911.03 436.54V785.498H2747.62V436.54H2911.03Z" fill="#F7E412"/>
<path d="M3138.91 257.432H2999.19L3217.02 785.498H3346.83L3564.66 257.432H3424.94L3281.93 622.678L3138.91 257.432Z" fill="#2C459B"/>
</svg>
