<svg width="203" height="53" viewBox="0 0 203 53" fill="none" xmlns="http://www.w3.org/2000/svg">
<rect x="29.9219" y="3" width="12.568" height="47.479" rx="6.28398" transform="rotate(30 29.9219 3)" fill="#00CA72"/>
<circle cx="8.03763" cy="14.7471" r="8.03763" fill="#FFCC00"/>
<g clip-path="url(#clip0_1705_4191)">
<path d="M57.707 51.6473C56.7935 51.2667 56.2606 50.8289 56.1083 50.3341C55.9561 49.8393 56.0893 49.1542 56.508 48.2787L71.638 14.3075C72.0567 13.432 72.4945 12.8991 72.9512 12.7088C73.446 12.4804 74.1312 12.5566 75.0066 12.9372C75.9201 13.3559 76.434 13.8126 76.5482 14.3075C76.7004 14.8023 76.5862 15.4684 76.2056 16.3058L60.9614 50.4483C60.5807 51.3238 60.162 51.8376 59.7053 51.9899C59.2485 52.1421 58.5824 52.0279 57.707 51.6473ZM63.3593 36.9169L50.2847 16.7625C49.7899 16.0013 49.5996 15.3732 49.7138 14.8784C49.8279 14.3455 50.2657 13.8317 51.0269 13.3368C51.8643 12.804 52.5304 12.6137 53.0252 12.7659C53.5581 12.8801 54.091 13.3178 54.6239 14.0791L65.7002 31.4929L63.3593 36.9169ZM91.5203 40.5709C89.8075 40.5709 88.1708 40.2284 86.6102 39.5432C85.0496 38.8581 83.6793 37.8875 82.4994 36.6314C81.3575 35.3753 80.444 33.9099 79.7588 32.2351C79.1118 30.5223 78.7882 28.6572 78.7882 26.6399C78.7882 24.6606 79.1118 22.8336 79.7588 21.1588C80.444 19.484 81.3575 18.0376 82.4994 16.8196C83.6793 15.5635 85.0496 14.5929 86.6102 13.9078C88.1708 13.2227 89.8075 12.8801 91.5203 12.8801C93.3854 12.8801 95.0602 13.2227 96.5446 13.9078C98.0672 14.5929 99.3613 15.5635 100.427 16.8196C101.531 18.0376 102.368 19.5031 102.939 21.2159C103.51 22.8907 103.796 24.7177 103.796 26.697C103.834 28.7143 103.548 30.5604 102.939 32.2351C102.368 33.9099 101.55 35.3753 100.484 36.6314C99.4184 37.8875 98.1243 38.8581 96.6017 39.5432C95.1173 40.2284 93.4235 40.5709 91.5203 40.5709ZM92.2626 35.7179C93.8612 35.7179 95.2886 35.3373 96.5446 34.576C97.8388 33.8148 98.8475 32.768 99.5707 31.4358C100.332 30.0655 100.713 28.505 100.713 26.7541C100.713 24.9651 100.332 23.4045 99.5707 22.0723C98.8475 20.702 97.8388 19.6363 96.5446 18.875C95.2886 18.1138 93.8612 17.7331 92.2626 17.7331C90.6639 17.7331 89.2175 18.1138 87.9234 18.875C86.6292 19.6363 85.6015 20.702 84.8403 22.0723C84.1171 23.4045 83.7555 24.9651 83.7555 26.7541C83.7555 28.505 84.1171 30.0655 84.8403 31.4358C85.6015 32.768 86.6292 33.8148 87.9234 34.576C89.2556 35.3373 90.702 35.7179 92.2626 35.7179ZM103.453 40.5709C102.616 40.5709 102.007 40.4187 101.626 40.1142C101.245 39.8097 101.017 39.2958 100.941 38.5726V2.83142C100.941 2.26048 100.979 1.78469 101.055 1.40406C101.169 1.02343 101.398 0.73796 101.74 0.547645C102.121 0.319267 102.673 0.205078 103.396 0.205078C104.119 0.205078 104.652 0.319267 104.995 0.547645C105.375 0.73796 105.623 1.02343 105.737 1.40406C105.851 1.78469 105.908 2.24145 105.908 2.77433V37.9446C105.908 38.4775 105.851 38.9533 105.737 39.372C105.623 39.7526 105.394 40.0381 105.052 40.2284C104.709 40.4568 104.176 40.5709 103.453 40.5709ZM127.144 40.5139C125.279 40.5139 123.566 40.1903 122.005 39.5432C120.445 38.8962 119.093 37.9636 117.952 36.7456C116.81 35.5276 115.915 34.0812 115.268 32.4064C114.659 30.7317 114.355 28.8666 114.355 26.8112C114.355 24.7558 114.659 22.9097 115.268 21.273C115.915 19.5982 116.81 18.1709 117.952 16.9909C119.093 15.7729 120.445 14.8403 122.005 14.1933C123.566 13.5462 125.279 13.2227 127.144 13.2227C128.933 13.2227 130.588 13.5462 132.111 14.1933C133.634 14.8403 134.966 15.7729 136.108 16.9909C137.25 18.2089 138.144 19.6743 138.791 21.3872C139.438 23.062 139.762 24.927 139.762 26.9824C139.762 28.9998 139.438 30.8458 138.791 32.5206C138.144 34.1573 137.25 35.5847 136.108 36.8027C134.966 37.9827 133.634 38.8962 132.111 39.5432C130.588 40.1903 128.933 40.5139 127.144 40.5139ZM114.868 51.5331C114.45 51.5331 114.107 51.476 113.841 51.3618C113.612 51.2476 113.441 51.0573 113.327 50.7909C113.213 50.5625 113.156 50.239 113.156 49.8203V15.1639C113.156 14.7071 113.194 14.3646 113.27 14.1362C113.384 13.8697 113.555 13.6794 113.784 13.5652C114.05 13.451 114.393 13.3939 114.811 13.3939C115.458 13.3939 115.896 13.5272 116.125 13.7936C116.391 14.022 116.524 14.4597 116.524 15.1068V49.7632C116.524 50.1819 116.467 50.5244 116.353 50.7909C116.277 51.0573 116.106 51.2476 115.839 51.3618C115.611 51.476 115.287 51.5331 114.868 51.5331ZM126.63 37.4878C128.533 37.4878 130.227 37.0501 131.711 36.1747C133.234 35.2612 134.433 34.0051 135.308 32.4064C136.184 30.7697 136.621 28.9046 136.621 26.8112C136.621 24.6796 136.184 22.8336 135.308 21.273C134.433 19.6743 133.234 18.4373 131.711 17.5618C130.227 16.6864 128.533 16.2487 126.63 16.2487C124.765 16.2487 123.071 16.7054 121.549 17.6189C120.064 18.4944 118.884 19.7314 118.009 21.3301C117.133 22.8907 116.695 24.7177 116.695 26.8112C116.695 28.9046 117.133 30.7697 118.009 32.4064C118.884 34.0051 120.064 35.2612 121.549 36.1747C123.071 37.0501 124.765 37.4878 126.63 37.4878ZM170.705 40.5709C170.172 40.5709 169.791 40.4377 169.563 40.1713C169.334 39.9048 169.182 39.41 169.106 38.6868V34.8615C168.687 35.5847 168.021 36.403 167.108 37.3166C166.232 38.192 165.071 38.9723 163.625 39.6574C162.217 40.3045 160.504 40.628 158.487 40.628C156.621 40.628 154.89 40.2855 153.291 39.6003C151.73 38.8771 150.36 37.8875 149.18 36.6314C148 35.3753 147.068 33.9289 146.382 32.2922C145.735 30.6175 145.412 28.8095 145.412 26.8683C145.412 25.0032 145.735 23.2713 146.382 21.6727C147.068 20.0359 148 18.6086 149.18 17.3906C150.398 16.1345 151.787 15.1639 153.348 14.4787C154.947 13.7555 156.659 13.3939 158.487 13.3939C160.275 13.3939 161.798 13.6223 163.054 14.0791C164.348 14.5358 165.471 15.1639 166.423 15.9632C167.412 16.7625 168.307 17.6951 169.106 18.7608V15.5064C169.106 14.7452 169.22 14.2123 169.449 13.9078C169.715 13.5652 170.153 13.3939 170.762 13.3939C171.142 13.3939 171.428 13.4701 171.618 13.6223C171.847 13.7365 171.999 13.9459 172.075 14.2504C172.189 14.5549 172.246 14.9736 172.246 15.5064V38.6868C172.246 39.1436 172.189 39.5242 172.075 39.8287C171.999 40.0952 171.847 40.2855 171.618 40.3997C171.39 40.5139 171.085 40.5709 170.705 40.5709ZM159.115 37.6591C160.942 37.6591 162.597 37.2024 164.082 36.2889C165.566 35.3373 166.746 34.0622 167.622 32.4635C168.497 30.8649 168.935 29.0378 168.935 26.9824C168.935 24.8129 168.478 22.9287 167.565 21.3301C166.651 19.7314 165.433 18.4944 163.91 17.6189C162.426 16.7054 160.789 16.2487 159 16.2487C156.907 16.2487 155.08 16.7245 153.519 17.676C151.959 18.6276 150.741 19.9218 149.865 21.5585C148.99 23.1571 148.552 25.0032 148.552 27.0966C148.552 29.114 148.99 30.922 149.865 32.5206C150.741 34.1193 151.978 35.3753 153.576 36.2889C155.175 37.2024 157.021 37.6591 159.115 37.6591ZM184.153 51.476C183.582 51.2476 183.24 50.9622 183.125 50.6196C183.049 50.3151 183.145 49.8583 183.411 49.2493L198.998 14.3075C199.264 13.6984 199.55 13.3178 199.854 13.1656C200.197 13.0133 200.654 13.0704 201.224 13.3368C201.795 13.6033 202.119 13.9078 202.195 14.2504C202.271 14.5929 202.176 15.0497 201.91 15.6206L186.266 50.6767C185.999 51.2857 185.714 51.6283 185.409 51.7044C185.143 51.7805 184.724 51.7044 184.153 51.476ZM190.148 36.0034L177.302 16.0203C176.959 15.4874 176.826 15.0497 176.902 14.7071C176.978 14.3646 177.264 14.041 177.759 13.7365C178.291 13.3939 178.729 13.2607 179.072 13.3368C179.452 13.413 179.814 13.7175 180.157 14.2504L191.861 32.8061L190.148 36.0034Z" fill="#262E39"/>
</g>
<defs>
<clipPath id="clip0_1705_4191">
<rect width="154" height="53" fill="white" transform="translate(49)"/>
</clipPath>
</defs>
</svg>
